HIERARCHY
ROOT Bip001_Pelvis
{
  OFFSET -1.09727 91.6061 -4.11886
  CHANNELS 6 Xposition Yposition Zposition Zrotation Xrotation Yrotation
  JOINT Bip001_Spine
  {
    OFFSET 1.44608e-005 10.4157 -0.0118244
    CHANNELS 3 Zrotation Xrotation Yrotation
    JOINT Bip001_L_Thigh
    {
      OFFSET 11.2582 -10.4157 0.0118432
      CHANNELS 3 Zrotation Xrotation Yrotation
      JOINT Bip001_L_Calf
      {
        OFFSET -0.720717 -44.8687 0.366937
        CHANNELS 3 Zrotation Xrotation Yrotation
        JOINT Bip001_L_Foot
        {
          OFFSET -0.664439 -41.3745 -3.62995
          CHANNELS 3 Zrotation Xrotation Yrotation
          JOINT Bip001_L_Toe0
          {
            OFFSET 0.0541047 -10.4146 13.4033
            CHANNELS 3 Zrotation Xrotation Yrotation
            End Site
            {
              OFFSET -1.04503e-005 0 7.70137
            }
          }
        }
      }
    }
    JOINT Bip001_R_Thigh
    {
      OFFSET -11.2582 -10.4156 0.0118122
      CHANNELS 3 Zrotation Xrotation Yrotation
      JOINT Bip001_R_Calf
      {
        OFFSET 0.72059 -44.8687 0.36676
        CHANNELS 3 Zrotation Xrotation Yrotation
        JOINT Bip001_R_Foot
        {
          OFFSET 0.664321 -41.3745 -3.62979
          CHANNELS 3 Zrotation Xrotation Yrotation
          JOINT Bip001_R_Toe0
          {
            OFFSET -0.05417 -10.4146 13.4033
            CHANNELS 3 Zrotation Xrotation Yrotation
            End Site
            {
              OFFSET -1.04873e-005 0 7.70137
            }
          }
        }
      }
    }
    JOINT Bip001_Spine1
    {
      OFFSET 1.90638e-005 14.8539 1.10727
      CHANNELS 3 Zrotation Xrotation Yrotation
      JOINT Bip001_Spine2
      {
        OFFSET 2.28934e-005 14.7848 -1.7233
        CHANNELS 3 Zrotation Xrotation Yrotation
        JOINT Bip001_Neck
        {
          OFFSET 2.24514e-005 15.6905 -0.498826
          CHANNELS 3 Zrotation Xrotation Yrotation
          JOINT Bip001_L_Clavicle
          {
            OFFSET 6.17691 -0.000591152 0.00852867
            CHANNELS 3 Zrotation Xrotation Yrotation
            JOINT Bip001_L_UpperArm
            {
              OFFSET 11.773 -0.0611878 0.00197697
              CHANNELS 3 Zrotation Xrotation Yrotation
              JOINT Bip001_L_Forearm
              {
                OFFSET 26.4515 0.0817566 -2.1958
                CHANNELS 3 Zrotation Xrotation Yrotation
                JOINT Bip001_L_Hand
                {
                  OFFSET 32.8677 0.156744 1.67112
                  CHANNELS 3 Zrotation Xrotation Yrotation
                  JOINT Bip001_L_Finger0
                  {
                    OFFSET 6.16268 -2.25225 6.01675
                    CHANNELS 3 Zrotation Xrotation Yrotation
                    End Site
                    {
                      OFFSET 4.30499 -1.46662 0.618149
                    }
                  }
                  JOINT Bip001_L_Finger1
                  {
                    OFFSET 11.2957 -0.718373 -0.201963
                    CHANNELS 3 Zrotation Xrotation Yrotation
                    End Site
                    {
                      OFFSET 6.31952 -0.405162 -0.0802303
                    }
                  }
                }
              }
            }
          }
          JOINT Bip001_R_Clavicle
          {
            OFFSET -6.17691 -0.000574027 0.00851165
            CHANNELS 3 Zrotation Xrotation Yrotation
            JOINT Bip001_R_UpperArm
            {
              OFFSET -11.773 -0.0611516 0.00194365
              CHANNELS 3 Zrotation Xrotation Yrotation
              JOINT Bip001_R_Forearm
              {
                OFFSET -26.4514 0.0822336 -2.19736
                CHANNELS 3 Zrotation Xrotation Yrotation
                JOINT Bip001_R_Hand
                {
                  OFFSET -32.8677 0.156816 1.67144
                  CHANNELS 3 Zrotation Xrotation Yrotation
                  JOINT Bip001_R_Finger0
                  {
                    OFFSET -6.1627 -2.25224 6.01672
                    CHANNELS 3 Zrotation Xrotation Yrotation
                    End Site
                    {
                      OFFSET -4.30499 -1.46661 0.618135
                    }
                  }
                  JOINT Bip001_R_Finger1
                  {
                    OFFSET -11.2958 -0.718343 -0.201994
                    CHANNELS 3 Zrotation Xrotation Yrotation
                    End Site
                    {
                      OFFSET -6.31952 -0.405146 -0.0802477
                    }
                  }
                }
              }
            }
          }
          JOINT Bip001_Head
          {
            OFFSET 1.11782e-005 11.4912 2.09908
            CHANNELS 3 Zrotation Xrotation Yrotation
            End Site
            {
              OFFSET 2.95144e-005 21.2823 -2.83069e-005
            }
          }
        }
      }
    }
  }
}
MOTION
Frames:	10
Frame Time:	0.0333333
-1.06821 91.6432 -4.05394 -1.02715 1.2488 9.18471 0.255376 -0.242353 -0.0814176 4.07568 -15.1886 2.8421 0.128993 31.3246 -0.140927 -4.17326 -10.3547 3.59773 1.00565e-007 2.47412e-008 -1.68752e-006 -1.4702 -14.9825 0.290817 -0.0939498 35.0248 -0.790729 0.0732616 -19.0288 -9.58936 2.1335e-007 2.02764e-009 3.21861e-009 0.517787 -0.492706 -0.189934 0.517136 -0.492726 -0.187778 -2.2198 -8.72594 0.94288 -26.2916 14.5953 -11.858 -43.0033 22.1385 4.19089 -2.02647 0.433151 -20.2221 5.21841 14.6251 -2.96482 -1.59028e-015 3.18055e-015 1.59028e-015 -3.18055e-015 0 -0 27.3835 12.755 9.1819 50.4195 47.6652 -5.79646 -1.57762 -1.99834 20.5961 -6.35083 -14.1543 -9.94557 -4.77083e-015 -9.54166e-015 -1.59028e-015 -3.18055e-015 -9.54167e-015 -3.18055e-015 1.19588 1.43876 -0.0848803 
-1.0739 91.6432 -4.05314 -1.02782 1.23776 9.1851 0.256515 -0.242353 -0.0814176 4.07366 -15.1776 2.83364 0.124093 31.3229 -0.185941 -4.18002 -10.389 3.62539 1.00565e-007 2.47412e-008 -1.68752e-006 -1.46273 -14.9835 0.298245 -0.101544 35.033 -0.857369 0.0561037 -18.9982 -9.54852 2.1335e-007 2.02765e-009 3.21861e-009 0.514575 -0.503236 -0.190216 0.509053 -0.50325 -0.18664 -2.21786 -8.71016 0.949039 -26.2918 14.5838 -11.8712 -43.0074 22.1278 4.20439 -2.02623 0.433159 -20.2293 5.21805 14.6418 -2.96353 -4.77083e-015 0 -4.77083e-015 -3.18055e-015 6.36111e-015 -3.18055e-015 27.3722 12.736 9.17809 50.4358 47.6707 -5.80885 -1.57783 -1.9982 20.5921 -6.33954 -14.1307 -9.94653 -3.18055e-015 3.18055e-015 1.59028e-015 -1.59028e-015 0 3.18055e-015 1.19867 1.41484 -0.0824763 
-1.07955 91.6403 -4.05713 -1.02822 1.23136 9.18729 0.255991 -0.242353 -0.0814176 4.10537 -15.1802 2.91439 0.119306 31.3402 -0.231834 -4.13836 -10.354 3.64084 1.00565e-007 2.47412e-008 -1.68752e-006 -1.37047 -14.9855 0.573163 -0.125899 35.0377 -1.07237 0.173937 -19.0231 -9.55941 2.1335e-007 2.02765e-009 3.21861e-009 0.511967 -0.525168 -0.183168 0.508758 -0.52482 -0.184814 -2.2076 -8.72323 0.977701 -26.2941 14.6073 -11.9004 -43.0167 22.0654 4.24106 -2.02586 0.433092 -20.2507 5.20682 14.7271 -2.97863 -1.59028e-015 -6.36111e-015 3.18055e-015 -1.59028e-015 -9.54167e-015 1.59028e-015 27.3506 12.7232 9.11677 50.4649 47.7149 -5.79 -1.57957 -1.99864 20.5445 -6.30844 -14.1236 -9.93609 1.59028e-015 3.18055e-015 3.18055e-015 -1.76556e-031 6.36111e-015 1.59028e-015 1.23243 1.37197 -0.0798436 
-1.08049 91.6403 -4.05831 -1.02203 1.21041 9.18934 0.251328 -0.242353 -0.0814176 4.13564 -15.1779 2.97725 0.114278 31.3699 -0.281137 -4.11325 -10.3698 3.60198 1.00565e-007 2.47412e-008 -1.68752e-006 -1.27975 -14.9651 0.819464 -0.153845 35.0394 -1.31924 0.265366 -19.0155 -9.54711 2.1335e-007 2.02765e-009 3.21861e-009 0.509951 -0.533783 -0.175034 0.511342 -0.532619 -0.182539 -2.17746 -8.74603 0.994997 -26.3232 14.6344 -11.899 -43.0252 22.0093 4.27434 -2.02538 0.432964 -20.2814 5.17079 14.7643 -2.96922 1.59028e-015 0 1.59028e-015 -1.59028e-015 0 1.59028e-015 27.3245 12.729 9.07197 50.4824 47.7842 -5.76902 -1.58126 -1.99905 20.4979 -6.33174 -14.1786 -9.92778 -1.59028e-015 -3.18055e-015 1.59028e-015 -4.77083e-015 -3.18056e-015 3.18055e-015 1.26347 1.33802 -0.0758157 
-1.08179 91.6376 -4.0666 -1.01272 1.19937 9.19256 0.247289 -0.242353 -0.0814176 4.13224 -15.1969 2.9393 0.109387 31.3959 -0.328832 -4.12209 -10.3897 3.65008 1.00565e-007 2.47412e-008 -1.68752e-006 -1.12795 -14.9721 1.2787 -0.197207 35.059 -1.70168 0.429273 -19.0132 -9.56835 2.1335e-007 2.02765e-009 3.21861e-009 0.508373 -0.54111 -0.173583 0.513123 -0.538659 -0.180055 -2.13624 -8.73385 1.00966 -26.362 14.6278 -11.9072 -43.0363 21.972 4.31124 -2.02484 0.432792 -20.3155 5.11475 14.775 -2.93603 -1.59028e-015 9.54166e-015 -0 -4.41391e-031 1.59028e-014 1.59028e-015 27.2861 12.7091 9.0596 50.5304 47.826 -5.7926 -1.58288 -1.99944 20.4535 -6.34431 -14.1919 -9.91486 3.18055e-015 -6.36111e-015 -1.59028e-015 1.59028e-015 -3.18056e-015 -1.59028e-015 1.27467 1.3361 -0.062285 
-1.08639 91.6296 -4.07235 -1.0093 1.19321 9.2001 0.244664 -0.242353 -0.0814176 4.13109 -15.2287 2.92262 0.10865 31.4558 -0.341777 -4.11774 -10.4041 3.66271 1.00565e-007 2.47412e-008 -1.68752e-006 -1.02026 -14.9779 1.60808 -0.225843 35.0889 -1.95282 0.558396 -19.0575 -9.58829 2.1335e-007 2.02765e-009 3.21861e-009 0.507252 -0.545423 -0.17282 0.514583 -0.543091 -0.176945 -2.12161 -8.71474 1.02521 -26.3702 14.6234 -11.9294 -43.047 21.9415 4.34595 -2.02426 0.432578 -20.3521 5.05095 14.804 -2.89113 -1.59028e-015 -3.18055e-015 -3.18055e-015 -4.77083e-015 -3.18056e-015 -3.18055e-015 27.2751 12.6832 9.05191 50.5642 47.8624 -5.81706 -1.58413 -1.99969 20.4197 -6.27583 -14.187 -9.8912 4.77083e-015 3.18055e-015 1.59028e-015 1.59028e-015 3.18056e-015 1.59028e-015 1.11544 1.2116 0.017915 
-1.0881 91.6263 -4.08006 -1.00611 1.18288 9.21595 0.242739 -0.242353 -0.0814176 4.13334 -15.2494 2.94042 0.10417 31.4848 -0.385977 -4.10366 -10.367 3.64205 1.00565e-007 2.47412e-008 -1.68752e-006 -1.00307 -14.9739 1.66927 -0.231454 35.1045 -2.00151 0.562962 -19.047 -9.61925 2.1335e-007 2.02765e-009 3.21861e-009 0.506596 -0.5481 -0.167438 0.515784 -0.546063 -0.169582 -2.10683 -8.70474 1.03554 -26.3816 14.6195 -11.9417 -43.0583 21.9351 4.37813 -2.02361 0.432313 -20.3952 5.01969 14.8042 -2.86608 -6.36111e-015 0 3.18055e-015 -4.77083e-015 0 6.36111e-015 27.2633 12.6695 9.04474 50.5867 47.8804 -5.8511 -1.58478 -1.99971 20.4033 -6.23437 -14.1872 -9.86152 -1.76556e-031 6.36111e-015 1.59028e-015 1.59028e-015 3.18056e-015 1.59028e-015 1.15824 1.21323 0.011639 
-1.08997 91.6206 -4.08996 -0.992338 1.18139 9.23547 0.241428 -0.242353 -0.0814176 4.13211 -15.2845 2.97635 0.101003 31.5345 -0.420203 -4.08294 -10.3567 3.64026 1.00565e-007 2.47412e-008 -1.68752e-006 -0.992335 -14.987 1.71575 -0.231745 35.1308 -2.00225 0.58863 -19.1027 -9.64905 2.1335e-007 2.02765e-009 3.21861e-009 0.506343 -0.549957 -0.159394 0.516741 -0.547723 -0.159813 -2.09882 -8.70622 1.04404 -26.3889 14.6186 -11.9485 -43.0628 21.8935 4.39889 -2.02307 0.432061 -20.4214 4.98198 14.7641 -2.82555 -3.18055e-015 0 -1.59028e-015 -1.59028e-015 0 -0 27.2547 12.6656 9.03639 50.6077 47.9249 -5.87871 -1.58564 -1.99982 20.3807 -6.29119 -14.2468 -9.84608 -6.36111e-015 1.27222e-014 3.18055e-015 -1.59028e-015 1.59028e-014 1.59028e-015 1.34687 1.25057 -0.0363888 
-1.09543 91.6149 -4.10568 -0.975348 1.19568 9.24605 0.240648 -0.242353 -0.0814176 4.11792 -15.3238 2.96598 0.0995996 31.5661 -0.461139 -4.06165 -10.332 3.66383 1.00565e-007 2.47412e-008 -1.68752e-006 -0.992373 -15.0123 1.71756 -0.222911 35.157 -1.92246 0.551906 -19.1369 -9.74797 2.1335e-007 2.02765e-009 3.21861e-009 0.506437 -0.551081 -0.150346 0.517456 -0.548221 -0.150364 -2.13203 -8.71028 1.05092 -26.3532 14.6249 -11.9592 -43.0644 21.8713 4.40858 -2.02251 0.431776 -20.4479 4.93132 14.691 -2.763 -1.59028e-015 0 -0 -1.59028e-015 3.18056e-015 -0 27.2746 12.6624 9.02492 50.6382 47.9229 -5.89336 -1.58663 -1.99997 20.3542 -6.2933 -14.2172 -9.82359 -1.59028e-015 0 -1.59028e-015 -8.82782e-032 -3.18056e-015 -1.59028e-015 1.35117 1.21331 -0.0323165 
-1.09522 91.6072 -4.11812 -0.970599 1.19823 9.25358 0.240313 -0.242353 -0.0814176 4.09309 -15.3667 2.88303 0.0985199 31.6162 -0.451508 -4.04646 -10.3195 3.71774 1.00565e-007 2.47412e-008 -1.68752e-006 -0.998072 -15.0383 1.68217 -0.214416 35.1889 -1.84458 0.533859 -19.1607 -9.78518 2.1335e-007 2.02765e-009 3.21861e-009 0.506817 -0.551561 -0.142367 0.517894 -0.547707 -0.147921 -2.15557 -8.71439 1.05947 -26.3272 14.6345 -11.9703 -43.0687 21.8691 4.42237 -2.02197 0.43147 -20.4707 4.93309 14.6027 -2.75594 -0 -3.18055e-015 -0 -4.77083e-015 -6.36111e-015 -0 27.2996 12.6602 9.01045 50.6574 47.9272 -5.91774 -1.58706 -1.99992 20.3438 -6.28208 -14.2022 -9.81307 -1.59028e-015 6.36111e-015 3.18055e-015 -1.59028e-015 6.36111e-015 1.59028e-015 1.3424 1.21547 -0.0157385 
